<?xml version="1.0" standalone="no"?>
<!DOCTYPE svg PUBLIC "-//W3C//DTD SVG 20010904//EN"
 "http://www.w3.org/TR/2001/REC-SVG-20010904/DTD/svg10.dtd">
<svg version="1.0" xmlns="http://www.w3.org/2000/svg"
 width="512.000000pt" height="512.000000pt" viewBox="0 0 512.000000 512.000000"
 preserveAspectRatio="xMidYMid meet">

<g transform="translate(0.000000,512.000000) scale(0.100000,-0.100000)"
fill="#000000" stroke="none">
<path d="M1060 4631 c-214 -6 -276 -11 -320 -25 -198 -64 -359 -235 -405 -427
-11 -50 -15 -132 -15 -367 l0 -303 1304 4 c1259 4 1306 5 1338 24 18 10 41 36
52 57 16 32 17 44 7 76 -6 21 -25 50 -42 64 l-31 26 -339 0 -339 0 0 183 c0
131 -4 200 -15 242 -52 203 -221 372 -431 430 -71 20 -360 26 -764 16z"/>
<path d="M904 3286 c-69 -69 -31 -172 69 -183 43 -5 49 -3 82 30 27 27 35 43
35 72 0 71 -41 114 -108 115 -37 0 -50 -6 -78 -34z m150 -22 c21 -21 20 -47
-3 -68 -41 -37 -97 14 -66 60 18 28 46 31 69 8z"/>
<path d="M1541 3289 c-26 -25 -31 -39 -31 -76 0 -38 5 -50 35 -80 33 -33 39
-35 81 -30 31 3 55 13 71 30 17 16 27 40 30 71 5 42 3 48 -30 81 -30 30 -42
35 -80 35 -37 0 -51 -5 -76 -31z m157 -21 c21 -21 15 -67 -12 -79 -34 -16 -66
3 -66 39 0 33 16 52 45 52 12 0 26 -5 33 -12z"/>
<path d="M3410 3173 c-47 -17 -81 -84 -66 -131 31 -97 178 -95 205 3 22 84
-58 158 -139 128z m108 -45 c21 -21 15 -68 -10 -77 -47 -18 -87 38 -53 73 19
19 46 21 63 4z"/>
<path d="M3994 3146 c-38 -38 -44 -77 -19 -126 19 -37 43 -50 95 -50 104 0
140 140 50 193 -46 28 -87 22 -126 -17z m148 -23 c23 -21 23 -38 -1 -62 -40
-40 -97 8 -66 55 18 28 41 31 67 7z"/>
<path d="M837 2113 c-3 -5 -1 -17 4 -28 7 -17 8 -17 8 8 1 27 -4 34 -12 20z"/>
<path d="M1756 2106 c12 -32 -16 -189 -44 -250 -85 -181 -291 -291 -482 -258
-189 32 -335 173 -373 357 -12 61 -14 66 -20 39 -9 -49 -104 -216 -141 -251
-35 -32 -89 -53 -139 -53 -37 0 -120 43 -145 75 -11 14 -22 25 -25 25 -10 0
-58 -91 -83 -155 l-24 -66 56 -112 56 -112 124 3 125 3 -2 -188 -1 -188 86
-97 c282 -319 674 -575 1091 -712 88 -29 307 -86 330 -86 3 0 5 191 5 423 l0
424 23 44 c15 29 40 54 71 73 46 29 51 30 212 34 l164 5 0 173 0 173 -27 3
-28 3 -3 91 -3 91 -44 5 c-96 11 -165 57 -333 220 -158 154 -221 200 -329 243
-91 36 -104 39 -97 21z"/>
<path d="M3073 2033 l-393 -3 0 -300 0 -300 69 0 c75 0 115 -19 155 -73 21
-28 21 -39 26 -660 l5 -632 30 3 c79 8 292 55 395 88 351 111 664 293 948 551
l82 75 0 244 0 244 189 0 c202 0 203 0 195 51 -2 13 -6 45 -9 72 -6 42 -8 46
-24 37 -37 -19 -100 -28 -144 -18 -72 15 -114 59 -170 177 -27 58 -52 122 -54
142 -6 44 11 103 43 146 l24 31 -78 41 c-81 41 -188 75 -279 86 l-53 7 0 -54
c0 -100 -60 -191 -160 -243 -52 -27 -172 -26 -226 3 -95 49 -147 125 -160 235
-3 31 -9 56 -13 55 -3 -2 -183 -4 -398 -5z"/>
</g>
</svg>
